<svg id="图层_1" data-name="图层 1" xmlns="http://www.w3.org/2000/svg" xmlns:xlink="http://www.w3.org/1999/xlink" viewBox="0 0 24 24"><defs><style>.cls-1,.cls-2{fill:none;}.cls-1{clip-rule:evenodd;}.cls-3{clip-path:url(#clip-path);}.cls-4{clip-path:url(#clip-path-2);}.cls-5{fill:#097fb8;}.cls-6{clip-path:url(#clip-path-3);}.cls-7{fill:#00b5ff;}.cls-8{clip-path:url(#clip-path-5);}.cls-9{clip-path:url(#clip-path-6);}</style><clipPath id="clip-path"><path class="cls-1" d="M7.73,7.38l-.19.18-.16.16-5,5L2.1,13l-.65.65A3.15,3.15,0,0,0,5.9,18.1l.65-.65.29-.29.7-.7,4.29-4.29L12,12,12,12l4.4-4.4a6.28,6.28,0,0,0-8.71-.18"/></clipPath><clipPath id="clip-path-2"><rect class="cls-2" x="-49" y="-361" width="1336" height="810"/></clipPath><clipPath id="clip-path-3"><path class="cls-1" d="M18.1,5.9l-1,.95-.71.71-4.28,4.28L12,12,12,12,7.54,16.46a6.3,6.3,0,0,0,8.73.16l.14-.13,0,0,.17-.17,5-5,.95-1A3.15,3.15,0,1,0,18.1,5.9"/></clipPath><clipPath id="clip-path-5"><path class="cls-1" d="M-7.85,16.33h-4.43a3,3,0,0,1-3-3V10.73a3,3,0,0,1,3-3h4.43a1.32,1.32,0,0,1,.48.06V7A3.43,3.43,0,0,0-10.8,3.55h-14a3.42,3.42,0,0,0-3.43,3.38V17a3.43,3.43,0,0,0,3.43,3.44h14a3.42,3.42,0,0,0,3.43-3.38v-.79C-7.53,16.28-7.69,16.33-7.85,16.33Z"/></clipPath><clipPath id="clip-path-6"><path class="cls-1" d="M-12.28,9.94a.76.76,0,0,0-.74.74v2.59a.76.76,0,0,0,.74.74h4.43a.76.76,0,0,0,.74-.74V10.68a.76.76,0,0,0-.74-.74Z"/></clipPath></defs><title>未标题-1</title><g class="cls-3"><g class="cls-4"><rect class="cls-5" x="-4.46" y="0.72" width="25.91" height="23.3"/></g></g><g class="cls-6"><g class="cls-4"><rect class="cls-7" x="2.54" y="-0.02" width="25.92" height="23.32"/></g></g></svg>