<svg id="图层_1" data-name="图层 1" xmlns="http://www.w3.org/2000/svg" xmlns:xlink="http://www.w3.org/1999/xlink" viewBox="0 0 24 24"><defs><style>.cls-1,.cls-2{fill:none;}.cls-1{clip-rule:evenodd;}.cls-3{clip-path:url(#clip-path);}.cls-4{clip-path:url(#clip-path-2);}.cls-5{clip-path:url(#clip-path-3);}.cls-6{clip-path:url(#clip-path-4);}.cls-7{fill:#00b5ff;}.cls-8{clip-path:url(#clip-path-5);}.cls-9{fill:#097fb8;}</style><clipPath id="clip-path"><path class="cls-1" d="M37.4,7.38l-.19.18-.16.16-5,5-.28.29-.65.65a3.15,3.15,0,1,0,4.45,4.45l.65-.65.28-.29.71-.7,4.29-4.29.13-.13.08-.08,4.4-4.4a6.28,6.28,0,0,0-8.71-.18"/></clipPath><clipPath id="clip-path-2"><path class="cls-1" d="M47.76,5.9l-.94.95-.71.71-4.29,4.28-.11.12-.09.08-4.41,4.42a6.3,6.3,0,0,0,8.73.16l.14-.13,0,0,.16-.17,5-5,.94-1A3.15,3.15,0,0,0,47.76,5.9"/></clipPath><clipPath id="clip-path-3"><path class="cls-1" d="M21.82,16.33H17.38a3,3,0,0,1-3-3V10.73a3,3,0,0,1,3-3h4.44a1.27,1.27,0,0,1,.47.06V7a3.43,3.43,0,0,0-3.43-3.44h-14A3.42,3.42,0,0,0,1.44,6.93V17a3.43,3.43,0,0,0,3.43,3.44h14a3.42,3.42,0,0,0,3.43-3.38v-.79C22.13,16.28,22,16.33,21.82,16.33Z"/></clipPath><clipPath id="clip-path-4"><rect class="cls-2" x="-49" y="-308" width="1336" height="810"/></clipPath><clipPath id="clip-path-5"><path class="cls-1" d="M17.38,9.94a.76.76,0,0,0-.74.74v2.59a.76.76,0,0,0,.74.74h4.44a.76.76,0,0,0,.74-.74V10.68a.76.76,0,0,0-.74-.74Z"/></clipPath></defs><title>未标题-1</title><g class="cls-5"><g class="cls-6"><rect class="cls-7" x="-3.56" y="-1.45" width="30.85" height="26.89"/></g></g><g class="cls-8"><g class="cls-6"><rect class="cls-9" x="11.64" y="4.94" width="15.91" height="14.06"/></g></g></svg>